<svg xmlns="http://www.w3.org/2000/svg" width="75" height="111" viewBox="0 0 75 111"><path fill="#FF3D00" d="M0 0v85.486L37.539 111 75 85.486V0z"/><path fill="#FFF" d="M63.375 68.584c0 1.187-1.723 1.797-3.032 1.867.073-1.674.867-2.863 2.081-2.863.584 0 .951.39.951.996m-.727-3.834c-4.152 0-6.237 3.395-6.237 6.916 0 3.686 1.673 6.261 5.944 6.261 2.715 0 4.538-1.263 4.656-1.386l-1.067-2.666c-.776.508-1.843 1.02-3.009 1.02-1.474 0-2.305-.898-2.402-1.992 2.385-.145 6.36-.842 6.36-4.368.001-2.549-1.696-3.785-4.245-3.785m-12.114 8.93c0 .631-.58 1.335-1.524 1.335-1.334 0-1.704-1.528-1.704-3.398 0-1.815.388-3.979 2.285-3.979.362 0 .677.074.943.172v5.87zm-1.16-8.93c-3.838 0-6.094 2.984-6.094 7.178 0 2.797.706 5.973 4.781 5.973 1.38 0 2.379-.508 3.009-1.526h.144l.22 1.16h3.401l-.271-2.643v-14.22h-4.03v4.197c-.286-.07-.627-.119-1.16-.119m-12.013-3.18c0 1.164.822 2.016 2.16 2.016 1.286 0 2.158-.852 2.158-2.016 0-1.117-.872-2.014-2.158-2.014-1.337.001-2.16.897-2.16 2.014m4.198 3.542H37.48v12.425h4.078V65.112zm-10.678 0v8.011c0 .969-.631 1.651-1.482 1.651-1.014 0-1.142-.753-1.142-1.847v-7.814h-4.074v8.349c0 2.938 1.356 4.392 4.124 4.392 1.288 0 2.451-.48 3.205-1.475h.092l.173 1.161h3.425l-.266-2.36V65.112h-4.055zm-9.148 4.099h-4.198v4.979c-.365.166-1.167.292-1.699.292-2.332 0-3.278-2.039-3.278-5.221 0-3.081 1.189-4.655 3.082-4.655 1.093 0 2.041.507 3.129 1.941l3.038-2.234c-1.843-2.646-4.029-3.201-6.119-3.201-3.495 0-7.428 2.108-7.428 8.393 0 5.605 2.917 8.324 7.454 8.324 2.449 0 4.659-.675 6.02-1.652v-6.966zM51.457 48.405c.021-1.115.725-1.771 1.764-1.771.636 0 1.239.146 1.755.412l.65-3.374a4.816 4.816 0 0 0-2.011-.464c-1.047 0-2.261.562-2.911 2.092l-.313-1.723h-3.305l.313 2.378V56h4.058v-7.595zm-10.682-4.827v8.009c0 .969-.63 1.651-1.477 1.651-1.02 0-1.145-.752-1.145-1.845v-7.814h-4.075v8.345c0 2.939 1.358 4.394 4.129 4.394 1.28 0 2.444-.484 3.2-1.478h.096l.168 1.162h3.425l-.27-2.349V43.581h-4.052v-.003zm-19.973 6.307c0 4.418 2.137 6.506 5.608 6.506 3.346 0 6.013-2.329 6.013-6.894 0-5.701-3.735-6.286-5.679-6.286-2.642-.002-5.942 1.579-5.942 6.674m5.78 3.543c-1.435 0-1.65-1.915-1.65-4.001 0-2.015.504-3.302 1.65-3.302 1.236 0 1.644 1.263 1.644 3.74 0 2.374-.462 3.563-1.644 3.563m-8.109-13.563l-2.938 5.823h-.097l-2.79-5.823h-4.59l5.22 9.948v6.188h4.149v-6.213l5.388-9.923h-4.342zM35.588 18.133v12.425c0 2.427.169 4.83 4.3 4.83 1.356 0 2.688-.411 3.445-.896l-.876-2.55c-.413.219-.85.387-1.31.387-.825 0-1.459-.335-1.459-1.673v-4.902h3.032v-3.18h-3.032v-4.438h-4.1zm-5.045 7.913c0 1.188-1.725 1.793-3.035 1.866.071-1.675.878-2.862 2.09-2.862.575 0 .945.387.945.996m-.731-3.835c-4.15 0-6.239 3.399-6.239 6.915 0 3.69 1.677 6.262 5.948 6.262 2.717 0 4.536-1.263 4.659-1.383l-1.065-2.67c-.778.509-1.846 1.023-3.014 1.023-1.477 0-2.306-.9-2.401-1.992 2.38-.147 6.356-.848 6.356-4.37.002-2.548-1.695-3.785-4.244-3.785m-8.079 4.467h-4.198v4.971c-.365.174-1.167.294-1.699.294-2.332 0-3.278-2.038-3.278-5.219 0-3.083 1.189-4.656 3.082-4.656 1.093 0 2.041.505 3.129 1.939l3.038-2.23c-1.843-2.648-4.029-3.206-6.119-3.206-3.495 0-7.428 2.111-7.428 8.398 0 5.6 2.917 8.32 7.454 8.32 2.449 0 4.659-.676 6.02-1.648v-6.963z"/></svg>