<svg id="EN" xmlns="http://www.w3.org/2000/svg" viewBox="0 0 850 140"><defs><style>.cls-1{fill:#fff}.cls-2{fill:url(#linear-gradient)}.cls-3{fill:#50b3d3}.cls-4{fill:#faa524}.cls-5{fill:#085773}.cls-6{fill:#8ad9f3}</style><linearGradient id="linear-gradient" x1="69.61" y1="29.66" x2="69.61" y2="10" gradientUnits="userSpaceOnUse"><stop offset="0" stop-color="#f58025"/><stop offset="1" stop-color="#f8a537"/></linearGradient></defs><title>header_logo_tagline-2</title><g id="logo_tagline" data-name="logo &amp; tagline"><g id="logo"><path class="cls-1" d="M143.75 80.8a2.13 2.13 0 0 1-2.34-2.35V37.62h-13.54V40c0 1.81.11 3.2.11 3.2h-.21s-3.84-6.61-15.67-6.61C97.7 36.56 87.36 47.75 87.36 65c0 16.84 9.49 28.46 24.2 28.46 12.47 0 16.95-8.85 16.95-8.85h.21v2c0 3.2 1.81 5.54 6.71 5.54h12.47V80.8zm-29.21 1.28c-8 0-13.43-6.72-13.43-17.06 0-10.77 6.18-16.84 13.64-16.84 9.06 0 13.43 8.31 13.43 16.74.01 12.08-6.6 17.16-13.64 17.16zM4.7 51.11a2.82 2.82 0 0 0-3-1.93H.52V37.63h7.81c4.5 0 6.63 1.39 8 5.14l10.3 28.67a58.87 58.87 0 0 1 2 7.81h.22a72 72 0 0 1 1.92-7.81l10.31-28.67c1.39-3.74 3.64-5.14 8-5.14h7.28v11.56h-1.27a2.82 2.82 0 0 0-3 1.93L36.47 92.2H20.32zM66.86 51.54a2.09 2.09 0 0 0-2.35-2.35h-4.28V37.63h12.95c5 0 7.17 2.25 7.17 7.28V78.4a2.14 2.14 0 0 0 2.35 2.35H87V92.2H74c-5 0-7.17-2.14-7.17-7.28zM153.34 48.44h-7.06V37.63h7.38V22.76h13.26v14.87h12.41v10.81h-12.41v22c0 9 7.06 10.27 10.81 10.27a12.45 12.45 0 0 0 2.46-.22v11.92a25 25 0 0 1-4.17.32c-7.6 0-22.68-2.25-22.68-20.54z"/><path class="cls-1" d="M209.83 36.35c16.69 0 30 11.88 30 28.57s-13.27 28.57-30 28.57S180 81.71 180 64.91s13.24-28.56 29.83-28.56zm0 45.58c8.88 0 16.27-6.85 16.27-17s-7.38-17-16.27-17-16.16 7-16.16 17 7.39 17 16.16 17zM245.67 51.54a2.09 2.09 0 0 0-2.35-2.35H239V37.63h12.41c4.82 0 7.28 2 7.28 6.63v3.21a25 25 0 0 1-.21 3.42h.21c2.46-7.81 9-14 17.33-14a17.45 17.45 0 0 1 2.46.21v13.37a24.05 24.05 0 0 0-3.32-.22 15.36 15.36 0 0 0-14.83 11.45 33 33 0 0 0-1.18 8.88V92.2h-13.48z"/><path class="cls-2" d="M79.44 19.83a9.83 9.83 0 1 0-9.83 9.83h9.83z"/></g><path id="divider" class="cls-3" d="M324.52 36.88h4v65.86h-4z"/><g id="text_outlines" data-name="text outlines"><path class="cls-1" d="M374.7 64.74H367V60h21v4.75h-7.7v20.94h-5.6zM387.75 67.08h4.86v3.46h.07a6.58 6.58 0 0 1 5.94-4 3.81 3.81 0 0 1 1.12.18v4.78a9.33 9.33 0 0 0-1.84-.18c-3.74 0-5 2.7-5 6v8.39h-5.11zM401.87 72.8c.29-4.79 4.57-6.23 8.75-6.23 3.71 0 8.17.83 8.17 5.29v9.68a9.54 9.54 0 0 0 .65 4.14h-5.18a7.58 7.58 0 0 1-.36-1.8 8.53 8.53 0 0 1-6.26 2.3c-3.53 0-6.34-1.76-6.34-5.58 0-4.21 3.17-5.22 6.34-5.65s6-.36 6-2.45-1.48-2.5-3.28-2.5-3.2.79-3.38 2.81zm11.81 3.78c-.86.76-2.66.79-4.25 1.08s-3 .86-3 2.74 1.48 2.38 3.13 2.38c4 0 4.14-3.17 4.14-4.28zM432.68 85.69H427l-6.37-18.61H426l3.92 12.71h.08l3.92-12.71H439zM444.82 77.62c.14 3.24 1.73 4.72 4.57 4.72 2.05 0 3.71-1.26 4-2.41h4.5c-1.44 4.39-4.5 6.26-8.71 6.26-5.87 0-9.5-4-9.5-9.79 0-5.58 3.85-9.83 9.5-9.83 6.33 0 9.39 5.33 9 11.05zm8.31-3.24c-.47-2.59-1.58-4-4.07-4a4 4 0 0 0-4.25 4zM461.5 60h5.11v25.7h-5.11zM502.29 85.69H497l-3.31-12.49h-.07l-3.17 12.49h-5.29l-5.9-18.61h5.4l3.42 12.63h.07l3.1-12.63h5l3.17 12.6h.07l3.42-12.6h5.26zM515.73 64.2h-5.11V60h5.11zm-5.11 2.88h5.11v18.61h-5.11zM526.33 67.08h3.74v3.42h-3.74v9.21c0 1.73.43 2.16 2.16 2.16a7.87 7.87 0 0 0 1.58-.14v4a19.6 19.6 0 0 1-3 .18c-3.13 0-5.87-.72-5.87-4.43v-11h-3.1v-3.4h3.1V61.5h5.11zM533.06 60h5.11v9.68h.11a6.54 6.54 0 0 1 5.44-3.1c5.44 0 6.8 3.06 6.8 7.67v11.44h-5.12V75.17c0-3.06-.9-4.57-3.28-4.57-2.77 0-4 1.55-4 5.33v9.75h-5.11zM564.56 72.8c.29-4.79 4.57-6.23 8.75-6.23 3.71 0 8.17.83 8.17 5.29v9.68a9.54 9.54 0 0 0 .65 4.14h-5.18a7.58 7.58 0 0 1-.36-1.8 8.54 8.54 0 0 1-6.26 2.3c-3.53 0-6.33-1.76-6.33-5.58 0-4.21 3.17-5.22 6.33-5.65s6-.36 6-2.45-1.48-2.5-3.28-2.5-3.2.79-3.38 2.81zm11.81 3.78c-.86.76-2.66.79-4.25 1.08s-3 .86-3 2.74 1.48 2.38 3.13 2.38c4 0 4.14-3.17 4.14-4.28zM585.71 67.08h4.86v2.59h.11a6.64 6.64 0 0 1 5.69-3.1c5.44 0 6.8 3.06 6.8 7.67v11.45h-5.11V75.17c0-3.06-.9-4.57-3.28-4.57-2.77 0-4 1.55-4 5.33v9.75h-5.11z"/><path class="cls-4" d="M622.68 64.2h-5.11V60h5.11zm-5.11 2.88h5.11v18.61h-5.11zM626.89 67.08h4.86v2.59h.11a6.64 6.64 0 0 1 5.69-3.1c5.44 0 6.8 3.06 6.8 7.67v11.45h-5.11V75.17c0-3.06-.9-4.57-3.28-4.57-2.77 0-4 1.55-4 5.33v9.75h-5.11zM652.35 79.64c0 2.23 1.91 3.13 3.92 3.13 1.48 0 3.35-.58 3.35-2.38 0-1.55-2.12-2.09-5.8-2.88-3-.65-5.9-1.69-5.9-5 0-4.75 4.1-6 8.1-6s7.81 1.37 8.21 5.94h-4.86c-.14-2-1.66-2.52-3.49-2.52-1.15 0-2.84.22-2.84 1.73 0 1.84 2.88 2.09 5.79 2.77s5.9 1.76 5.9 5.22c0 4.9-4.25 6.48-8.49 6.48s-8.53-1.62-8.75-6.55zM673.22 64.2h-5.11V60h5.11zm-5.11 2.88h5.11v18.61h-5.11zM690.73 83.31h-.07a6.18 6.18 0 0 1-5.66 2.88c-5.61 0-8.35-4.82-8.35-10s2.77-9.65 8.24-9.65a6.4 6.4 0 0 1 5.51 2.77h.07V60h5.11v25.7h-4.86zm-4.46-12.89c-3.35 0-4.5 2.88-4.5 5.94s1.33 6 4.5 6c3.38 0 4.39-3 4.39-6s-1.08-5.94-4.39-5.94zM704 77.62c.14 3.24 1.73 4.72 4.57 4.72 2.05 0 3.71-1.26 4-2.41h4.5c-1.44 4.39-4.5 6.26-8.71 6.26-5.87 0-9.5-4-9.5-9.79 0-5.58 3.85-9.83 9.5-9.83 6.33 0 9.39 5.33 9 11.05zm8.31-3.24c-.47-2.59-1.58-4-4.07-4a4 4 0 0 0-4.25 4zM720.58 67.08h4.86v3.46h.07a6.58 6.58 0 0 1 5.94-4 3.82 3.82 0 0 1 1.12.18v4.78a9.35 9.35 0 0 0-1.84-.18c-3.74 0-5 2.7-5 6v8.39h-5.11z"/><path class="cls-5" d="M735.34 60.4a1.69 1.69 0 0 0 .32.86 1.86 1.86 0 0 0 1.49.52 3.23 3.23 0 0 0 1-.14 1 1 0 0 0 .75-1 .72.72 0 0 0-.37-.64 4 4 0 0 0-1.17-.39l-.91-.2a5.66 5.66 0 0 1-1.84-.64 2 2 0 0 1-.85-1.82 2.41 2.41 0 0 1 .83-1.87 3.54 3.54 0 0 1 2.44-.75 3.74 3.74 0 0 1 2.29.7 2.5 2.5 0 0 1 1 2h-1.69A1.2 1.2 0 0 0 738 56a2.33 2.33 0 0 0-1-.21 2 2 0 0 0-1.11.27.87.87 0 0 0-.42.76.72.72 0 0 0 .41.67 5.06 5.06 0 0 0 1.11.35l1.47.35a3.75 3.75 0 0 1 1.45.61 2.05 2.05 0 0 1 .75 1.71 2.41 2.41 0 0 1-.89 1.91 3.75 3.75 0 0 1-2.51.76 4.11 4.11 0 0 1-2.61-.75 2.48 2.48 0 0 1-.95-2.06zM747.42 54.6h2.52V63h-1.63v-5.68-.69-.68l-1.59 7H745l-1.58-7V63h-1.63v-8.4h2.55l1.53 6.6z"/><path class="cls-6" d="M7.11 109.11h2.63L16 126.32h-2.56l-1.8-5.16H4.89L3 126.32H.63zM11 119.27l-2.65-7.61-2.75 7.61zM38.48 109.11v2.05h-5.8v15.16h-2.36v-15.16h-5.8v-2.05zM38.63 113.77h2v2.17a4.79 4.79 0 0 1 1.21-1.54 3.13 3.13 0 0 1 2.21-.91H44.73v2.23H44a3 3 0 0 0-2.45 1 3.58 3.58 0 0 0-.86 2.36v7.22h-2.06zM47 109.11h2.14v2.39H47zm0 4.72h2.14v12.49H47zM52.62 113.83h2.06v1.66a5.12 5.12 0 0 1 1.39-1.32 4.47 4.47 0 0 1 2.51-.7 4.73 4.73 0 0 1 3.63 1.63 6.69 6.69 0 0 1 1.49 4.67q0 4.1-2.15 5.86a4.88 4.88 0 0 1-3.18 1.11 4.32 4.32 0 0 1-2.39-.62 5.5 5.5 0 0 1-1.26-1.21v6.41h-2.1zm7.94 9.84a5.87 5.87 0 0 0 1-3.7 6.88 6.88 0 0 0-.44-2.58 3.19 3.19 0 0 0-6 .12 8.66 8.66 0 0 0-.44 3 6.29 6.29 0 0 0 .44 2.47 3.2 3.2 0 0 0 5.47.71zM71.54 109.11h2.63l6.25 17.21h-2.56l-1.8-5.16h-6.75l-1.87 5.16h-2.39zm3.87 10.16l-2.65-7.61-2.76 7.61zM89.39 114.16a5.66 5.66 0 0 1 1.27 1.23V109h2v17.27h-1.9v-1.75a4.56 4.56 0 0 1-1.76 1.73 5 5 0 0 1-2.3.52 4.65 4.65 0 0 1-3.57-1.77 6.91 6.91 0 0 1-1.53-4.69 8.12 8.12 0 0 1 1.4-4.75 4.56 4.56 0 0 1 4-2 4.43 4.43 0 0 1 2.39.6zm-4.71 9.41a3 3 0 0 0 2.73 1.36 2.87 2.87 0 0 0 2.4-1.26 6 6 0 0 0 .94-3.62 5.37 5.37 0 0 0-1-3.52 3 3 0 0 0-2.39-1.14 3.15 3.15 0 0 0-2.57 1.22 5.6 5.6 0 0 0-1 3.59 6.25 6.25 0 0 0 .89 3.37zM97.39 113.77l3.35 10.23 3.49-10.22h2.31l-4.72 12.55h-2.26l-4.63-12.55zM108.82 109.11H111v2.39h-2.14zm0 4.72H111v12.49h-2.14zM115.83 122.38a3 3 0 0 0 .54 1.62 3.42 3.42 0 0 0 2.82 1 4.23 4.23 0 0 0 2.1-.51 1.69 1.69 0 0 0 .91-1.58 1.34 1.34 0 0 0-.73-1.23 8.73 8.73 0 0 0-1.83-.6l-1.7-.42a8.39 8.39 0 0 1-2.41-.89 2.65 2.65 0 0 1-1.38-2.37 3.6 3.6 0 0 1 1.3-2.88 5.23 5.23 0 0 1 3.5-1.1 4.88 4.88 0 0 1 4.14 1.66 3.58 3.58 0 0 1 .77 2.27h-2a2.39 2.39 0 0 0-.52-1.29 3.35 3.35 0 0 0-2.58-.83 3.15 3.15 0 0 0-1.85.46 1.42 1.42 0 0 0-.63 1.2 1.48 1.48 0 0 0 .83 1.31 5 5 0 0 0 1.41.51l1.42.34a11.12 11.12 0 0 1 3.1 1.07 2.82 2.82 0 0 1 1.23 2.54 3.85 3.85 0 0 1-1.29 2.89 5.52 5.52 0 0 1-3.92 1.22q-2.84 0-4-1.27a4.78 4.78 0 0 1-1.26-3.15zM136.27 115a6.33 6.33 0 0 1 1.66 4.75 8.19 8.19 0 0 1-1.47 5 5.29 5.29 0 0 1-4.55 2 5.12 5.12 0 0 1-4.08-1.75 6.94 6.94 0 0 1-1.51-4.7 7.51 7.51 0 0 1 1.59-5 5.34 5.34 0 0 1 4.28-1.87 5.62 5.62 0 0 1 4.08 1.57zm-1.27 8.37a8 8 0 0 0 .77-3.53 6.34 6.34 0 0 0-.56-2.86 3.12 3.12 0 0 0-3-1.73 3 3 0 0 0-2.78 1.48 6.89 6.89 0 0 0-.87 3.56 6 6 0 0 0 .87 3.34 3.05 3.05 0 0 0 2.76 1.33 2.87 2.87 0 0 0 2.81-1.59zM140.94 113.77h2v2.17a4.79 4.79 0 0 1 1.21-1.54 3.13 3.13 0 0 1 2.21-.91H147.04v2.23h-.7a3 3 0 0 0-2.45 1 3.58 3.58 0 0 0-.86 2.36v7.22h-2.11zM163.36 123.79a8.61 8.61 0 1 1 2.52-6.11 8.28 8.28 0 0 1-2.52 6.11zM152 112.46a7.16 7.16 0 0 0-2.16 5.24A7.24 7.24 0 0 0 152 123a7.38 7.38 0 0 0 10.48 0 7.48 7.48 0 0 0 0-10.51 7.37 7.37 0 0 0-10.46 0zm5.06.48a7.19 7.19 0 0 1 2.58.34 2.34 2.34 0 0 1 1.46 2.39 2.06 2.06 0 0 1-.92 1.86 3.57 3.57 0 0 1-1.37.46 2.29 2.29 0 0 1 1.62.92 2.59 2.59 0 0 1 .51 1.46v1.39a1.52 1.52 0 0 0 .08.49l.06.12h-1.48v-1.25a2.31 2.31 0 0 0-.89-2.16 4 4 0 0 0-1.85-.3h-1.31v3.71h-1.75v-9.45zm1.8 1.49a4.33 4.33 0 0 0-2-.35h-1.42v3.42H157a4.52 4.52 0 0 0 1.59-.21 1.7 1.7 0 0 0 .35-2.86zM188 110.36a6.11 6.11 0 0 1 2 3.91h-2.27a4.33 4.33 0 0 0-4.7-3.61 5.06 5.06 0 0 0-4 1.79q-1.54 1.79-1.54 5.48a8.07 8.07 0 0 0 1.39 4.91 4.81 4.81 0 0 0 4.14 1.88 4.35 4.35 0 0 0 3.86-2 7.62 7.62 0 0 0 1-2.74h2.27a7.81 7.81 0 0 1-2 4.56 7 7 0 0 1-5.47 2.21 7.16 7.16 0 0 1-5-1.82q-2.65-2.4-2.65-7.42a9.56 9.56 0 0 1 2-6.25 7.24 7.24 0 0 1 5.94-2.65 6.92 6.92 0 0 1 5.03 1.75zM202.45 115a6.33 6.33 0 0 1 1.66 4.75 8.19 8.19 0 0 1-1.47 5 5.29 5.29 0 0 1-4.55 2A5.12 5.12 0 0 1 194 125a6.94 6.94 0 0 1-1.51-4.7 7.51 7.51 0 0 1 1.59-5 5.34 5.34 0 0 1 4.28-1.87 5.62 5.62 0 0 1 4.09 1.57zm-1.31 8.34a8 8 0 0 0 .77-3.53 6.34 6.34 0 0 0-.56-2.86 3.12 3.12 0 0 0-3-1.73 3 3 0 0 0-2.78 1.48 6.89 6.89 0 0 0-.87 3.56 6 6 0 0 0 .87 3.34 3.05 3.05 0 0 0 2.76 1.33 2.87 2.87 0 0 0 2.81-1.56zM207.09 113.77h2.09v1.78a7 7 0 0 1 1.36-1.35 4.09 4.09 0 0 1 2.37-.71 3.73 3.73 0 0 1 2.41.74 3.86 3.86 0 0 1 .94 1.24 4.56 4.56 0 0 1 1.65-1.49 4.61 4.61 0 0 1 2.13-.49 3.49 3.49 0 0 1 3.45 1.83A6 6 0 0 1 224 118v8.36h-2.19v-8.76a2 2 0 0 0-.63-1.72 2.48 2.48 0 0 0-1.53-.47 3 3 0 0 0-2.14.83 3.65 3.65 0 0 0-.9 2.78v7.3h-2.14v-8.19a4.26 4.26 0 0 0-.3-1.86 1.86 1.86 0 0 0-1.79-.88 3.09 3.09 0 0 0-2.17.93 4.54 4.54 0 0 0-1 3.35v6.66h-2.11zM227.38 113.83h2.06v1.66a5.12 5.12 0 0 1 1.39-1.32 4.47 4.47 0 0 1 2.51-.7 4.73 4.73 0 0 1 3.66 1.63 6.69 6.69 0 0 1 1.49 4.67q0 4.1-2.15 5.86a4.88 4.88 0 0 1-3.18 1.11 4.32 4.32 0 0 1-2.39-.62 5.5 5.5 0 0 1-1.26-1.21v6.41h-2.11zm7.94 9.84a5.87 5.87 0 0 0 1-3.7 6.88 6.88 0 0 0-.44-2.58 3.19 3.19 0 0 0-6 .12 8.66 8.66 0 0 0-.44 3 6.29 6.29 0 0 0 .44 2.47 3.2 3.2 0 0 0 5.47.71zM248 118.73a1.15 1.15 0 0 0 1-.61 1.87 1.87 0 0 0 .14-.81 1.72 1.72 0 0 0-.77-1.57 4.09 4.09 0 0 0-2.19-.49 2.78 2.78 0 0 0-2.34.9 3 3 0 0 0-.5 1.47h-2a3.64 3.64 0 0 1 1.5-3.24 6.16 6.16 0 0 1 3.35-.91 6.82 6.82 0 0 1 3.59.84 2.86 2.86 0 0 1 1.37 2.63v7.23a.93.93 0 0 0 .13.53.65.65 0 0 0 .57.2h.32l.38-.05v1.56a5.87 5.87 0 0 1-.75.18 5.48 5.48 0 0 1-.7 0 1.73 1.73 0 0 1-1.58-.77 3 3 0 0 1-.36-1.16 5.37 5.37 0 0 1-1.85 1.46 5.73 5.73 0 0 1-2.66.62 4 4 0 0 1-2.85-1.06 3.52 3.52 0 0 1-1.11-2.65 3.41 3.41 0 0 1 1.09-2.7 5.19 5.19 0 0 1 2.86-1.18zm-4.44 5.7a2.48 2.48 0 0 0 1.58.53 4.82 4.82 0 0 0 2.16-.51 2.9 2.9 0 0 0 1.76-2.8v-1.7a3.58 3.58 0 0 1-1 .41 8.39 8.39 0 0 1-1.19.23l-1.27.16a4.92 4.92 0 0 0-1.72.48 1.86 1.86 0 0 0-1 1.75 1.73 1.73 0 0 0 .65 1.45zM255 113.77h2v1.78a5.62 5.62 0 0 1 1.89-1.58 5 5 0 0 1 2.21-.48 3.65 3.65 0 0 1 3.61 1.86 6.62 6.62 0 0 1 .52 2.92v8.05h-2.14v-7.91a4.28 4.28 0 0 0-.34-1.85 2.06 2.06 0 0 0-2-1.17 4.15 4.15 0 0 0-1.23.15 3.17 3.17 0 0 0-1.52 1 3.1 3.1 0 0 0-.69 1.28 8.64 8.64 0 0 0-.16 1.89v6.57H255zM276.18 113.77h2.33q-.45 1.21-2 5.51-1.15 3.24-1.92 5.28a35.68 35.68 0 0 1-2.58 5.86 2.94 2.94 0 0 1-2.58 1.05 5.05 5.05 0 0 1-.69 0 5.39 5.39 0 0 1-.59-.13v-1.92a7.27 7.27 0 0 0 .8.19 3.1 3.1 0 0 0 .43 0 1.52 1.52 0 0 0 .86-.19 1.78 1.78 0 0 0 .46-.47q.06-.09.42-1t.53-1.29L267 113.77h2.39l3.4 10.23z"/></g></g></svg>